<svg xmlns="http://www.w3.org/2000/svg" xmlns:xlink="http://www.w3.org/1999/xlink" width="500" zoomAndPan="magnify" viewBox="0 0 375 374.999991" height="500" preserveAspectRatio="xMidYMid meet" version="1.0"><defs><g/></defs><g fill="#000000" fill-opacity="1"><g transform="translate(65.726515, 208.122425)"><g><path d="M 3.453125 1.25 L 3.453125 -41.46875 C 3.453125 -42.300781 3.875 -42.71875 4.71875 -42.71875 L 11.3125 -42.71875 C 11.957031 -42.71875 12.457031 -42.445312 12.8125 -41.90625 L 31.734375 -13.828125 L 31.984375 -14.015625 C 31.628906 -14.765625 31.304688 -15.503906 31.015625 -16.234375 C 30.734375 -16.972656 30.507812 -17.816406 30.34375 -18.765625 C 30.175781 -19.722656 30.09375 -20.898438 30.09375 -22.296875 L 30.09375 -28.96875 C 30.09375 -32.207031 30.5 -34.859375 31.3125 -36.921875 C 32.132812 -38.984375 33.25 -40.566406 34.65625 -41.671875 C 36.070312 -42.785156 37.691406 -43.554688 39.515625 -43.984375 L 39.515625 -1.25 C 39.515625 -0.414062 39.097656 0 38.265625 0 L 31.671875 0 C 31.015625 0 30.507812 -0.269531 30.15625 -0.8125 L 11.25 -28.90625 L 11 -28.71875 C 11.351562 -27.957031 11.671875 -27.207031 11.953125 -26.46875 C 12.234375 -25.738281 12.457031 -24.898438 12.625 -23.953125 C 12.789062 -23.003906 12.875 -21.828125 12.875 -20.421875 L 12.875 -13.765625 C 12.875 -10.515625 12.46875 -7.859375 11.65625 -5.796875 C 10.851562 -3.734375 9.738281 -2.144531 8.3125 -1.03125 C 6.894531 0.0703125 5.273438 0.832031 3.453125 1.25 Z M 3.453125 1.25 "/></g></g></g><g fill="#000000" fill-opacity="1"><g transform="translate(109.383929, 208.122425)"><g><path d="M 17.84375 -28.71875 C 19.957031 -28.71875 21.9375 -28.398438 23.78125 -27.765625 C 25.625 -27.140625 27.25 -26.222656 28.65625 -25.015625 C 30.070312 -23.816406 31.175781 -22.332031 31.96875 -20.5625 C 32.769531 -18.789062 33.171875 -16.753906 33.171875 -14.453125 L 33.171875 -13.3125 C 33.171875 -12.476562 32.753906 -12.0625 31.921875 -12.0625 L 11.6875 -12.0625 C 11.8125 -10.15625 12.394531 -8.617188 13.4375 -7.453125 C 14.488281 -6.296875 15.894531 -5.71875 17.65625 -5.71875 C 19.039062 -5.71875 20.179688 -6 21.078125 -6.5625 C 21.972656 -7.125 22.613281 -7.828125 23 -8.671875 C 23.164062 -9.023438 23.351562 -9.289062 23.5625 -9.46875 C 23.769531 -9.644531 24.039062 -9.734375 24.375 -9.734375 L 31.34375 -9.734375 C 31.789062 -9.734375 32.125 -9.601562 32.34375 -9.34375 C 32.5625 -9.082031 32.585938 -8.734375 32.421875 -8.296875 C 31.679688 -6.203125 30.601562 -4.46875 29.1875 -3.09375 C 27.78125 -1.71875 26.113281 -0.691406 24.1875 -0.015625 C 22.257812 0.660156 20.144531 1 17.84375 1 C 15.457031 1 13.273438 0.660156 11.296875 -0.015625 C 9.316406 -0.691406 7.613281 -1.675781 6.1875 -2.96875 C 4.757812 -4.257812 3.65625 -5.816406 2.875 -7.640625 C 2.09375 -9.472656 1.703125 -11.535156 1.703125 -13.828125 C 1.703125 -16.085938 2.101562 -18.132812 2.90625 -19.96875 C 3.707031 -21.800781 4.832031 -23.363281 6.28125 -24.65625 C 7.726562 -25.957031 9.4375 -26.957031 11.40625 -27.65625 C 13.375 -28.363281 15.519531 -28.71875 17.84375 -28.71875 Z M 11.8125 -17.15625 L 23.1875 -17.15625 C 23.101562 -18.65625 22.554688 -19.882812 21.546875 -20.84375 C 20.546875 -21.8125 19.207031 -22.296875 17.53125 -22.296875 C 15.789062 -22.296875 14.46875 -21.8125 13.5625 -20.84375 C 12.664062 -19.882812 12.082031 -18.65625 11.8125 -17.15625 Z M 11.8125 -17.15625 "/></g></g></g><g fill="#000000" fill-opacity="1"><g transform="translate(145.00088, 208.122425)"><g><path d="M 26.734375 -23.21875 C 28.265625 -26.25 30.875 -27.953125 34.5625 -28.328125 L 34.5625 0.625 C 30.875 0.25 28.265625 -1.46875 26.734375 -4.53125 C 25.515625 -2.8125 23.953125 -1.457031 22.046875 -0.46875 C 20.140625 0.507812 18.003906 1 15.640625 1 C 13.609375 1 11.742188 0.640625 10.046875 -0.078125 C 8.359375 -0.796875 6.898438 -1.816406 5.671875 -3.140625 C 4.441406 -4.460938 3.492188 -6.035156 2.828125 -7.859375 C 2.160156 -9.679688 1.828125 -11.691406 1.828125 -13.890625 C 1.828125 -16.066406 2.160156 -18.0625 2.828125 -19.875 C 3.492188 -21.6875 4.441406 -23.25 5.671875 -24.5625 C 6.898438 -25.882812 8.359375 -26.90625 10.046875 -27.625 C 11.742188 -28.351562 13.609375 -28.71875 15.640625 -28.71875 C 18.003906 -28.71875 20.140625 -28.226562 22.046875 -27.25 C 23.953125 -26.28125 25.515625 -24.9375 26.734375 -23.21875 Z M 18.53125 -6.53125 C 19.8125 -6.53125 20.945312 -6.835938 21.9375 -7.453125 C 22.9375 -8.078125 23.71875 -8.9375 24.28125 -10.03125 C 24.84375 -11.132812 25.125 -12.398438 25.125 -13.828125 C 25.125 -15.242188 24.84375 -16.5 24.28125 -17.59375 C 23.71875 -18.695312 22.9375 -19.554688 21.9375 -20.171875 C 20.945312 -20.796875 19.8125 -21.109375 18.53125 -21.109375 C 17.257812 -21.109375 16.125 -20.796875 15.125 -20.171875 C 14.132812 -19.554688 13.351562 -18.695312 12.78125 -17.59375 C 12.21875 -16.5 11.9375 -15.242188 11.9375 -13.828125 C 11.9375 -12.398438 12.21875 -11.132812 12.78125 -10.03125 C 13.351562 -8.9375 14.132812 -8.078125 15.125 -7.453125 C 16.125 -6.835938 17.257812 -6.53125 18.53125 -6.53125 Z M 18.53125 -6.53125 "/></g></g></g><g fill="#000000" fill-opacity="1"><g transform="translate(183.25611, 208.122425)"><g><path d="M 26.640625 -34.171875 L 12.5625 -34.171875 L 12.5625 -26.328125 L 26.015625 -26.328125 C 26.847656 -26.328125 27.265625 -25.90625 27.265625 -25.0625 L 27.265625 -19.03125 C 27.265625 -18.195312 26.847656 -17.78125 26.015625 -17.78125 L 23.875 -17.78125 C 20.914062 -17.78125 18.476562 -18.335938 16.5625 -19.453125 C 14.65625 -20.578125 13.320312 -22.039062 12.5625 -23.84375 L 12.5625 -8.546875 L 26.640625 -8.546875 C 27.472656 -8.546875 27.890625 -8.125 27.890625 -7.28125 L 27.890625 -1.25 C 27.890625 -0.414062 27.472656 0 26.640625 0 L 4.390625 0 C 3.554688 0 3.140625 -0.414062 3.140625 -1.25 L 3.140625 -21.671875 C 3.140625 -24.960938 3.769531 -27.671875 5.03125 -29.796875 C 6.300781 -31.921875 7.960938 -33.378906 10.015625 -34.171875 L 4.390625 -34.171875 C 3.554688 -34.171875 3.140625 -34.59375 3.140625 -35.4375 L 3.140625 -41.46875 C 3.140625 -42.300781 3.554688 -42.71875 4.390625 -42.71875 L 26.640625 -42.71875 C 27.472656 -42.71875 27.890625 -42.300781 27.890625 -41.46875 L 27.890625 -35.4375 C 27.890625 -34.59375 27.472656 -34.171875 26.640625 -34.171875 Z M 26.640625 -34.171875 "/></g></g></g><g fill="#000000" fill-opacity="1"><g transform="translate(214.350291, 208.122425)"><g><path d="M 21.484375 -28.078125 C 21.835938 -27.992188 22.09375 -27.820312 22.25 -27.5625 C 22.414062 -27.300781 22.5 -26.992188 22.5 -26.640625 L 22.5 -20.421875 C 22.5 -19.984375 22.363281 -19.671875 22.09375 -19.484375 C 21.832031 -19.304688 21.484375 -19.28125 21.046875 -19.40625 C 19.972656 -19.664062 19.007812 -19.796875 18.15625 -19.796875 C 14.71875 -19.796875 12.8125 -17.847656 12.4375 -13.953125 L 12.4375 -1.25 C 12.4375 -0.414062 12.019531 0 11.1875 0 L 4.265625 0 C 3.429688 0 3.015625 -0.414062 3.015625 -1.25 L 3.015625 -28.328125 C 6.804688 -27.535156 9.46875 -25.695312 11 -22.8125 C 11.976562 -24.820312 13.210938 -26.242188 14.703125 -27.078125 C 16.191406 -27.910156 17.757812 -28.328125 19.40625 -28.328125 C 19.769531 -28.328125 20.128906 -28.300781 20.484375 -28.25 C 20.835938 -28.195312 21.171875 -28.140625 21.484375 -28.078125 Z M 21.484375 -28.078125 "/></g></g></g><g fill="#000000" fill-opacity="1"><g transform="translate(238.534702, 208.122425)"><g><path d="M 26.734375 -23.21875 C 28.265625 -26.25 30.875 -27.953125 34.5625 -28.328125 L 34.5625 0.625 C 30.875 0.25 28.265625 -1.46875 26.734375 -4.53125 C 25.515625 -2.8125 23.953125 -1.457031 22.046875 -0.46875 C 20.140625 0.507812 18.003906 1 15.640625 1 C 13.609375 1 11.742188 0.640625 10.046875 -0.078125 C 8.359375 -0.796875 6.898438 -1.816406 5.671875 -3.140625 C 4.441406 -4.460938 3.492188 -6.035156 2.828125 -7.859375 C 2.160156 -9.679688 1.828125 -11.691406 1.828125 -13.890625 C 1.828125 -16.066406 2.160156 -18.0625 2.828125 -19.875 C 3.492188 -21.6875 4.441406 -23.25 5.671875 -24.5625 C 6.898438 -25.882812 8.359375 -26.90625 10.046875 -27.625 C 11.742188 -28.351562 13.609375 -28.71875 15.640625 -28.71875 C 18.003906 -28.71875 20.140625 -28.226562 22.046875 -27.25 C 23.953125 -26.28125 25.515625 -24.9375 26.734375 -23.21875 Z M 18.53125 -6.53125 C 19.8125 -6.53125 20.945312 -6.835938 21.9375 -7.453125 C 22.9375 -8.078125 23.71875 -8.9375 24.28125 -10.03125 C 24.84375 -11.132812 25.125 -12.398438 25.125 -13.828125 C 25.125 -15.242188 24.84375 -16.5 24.28125 -17.59375 C 23.71875 -18.695312 22.9375 -19.554688 21.9375 -20.171875 C 20.945312 -20.796875 19.8125 -21.109375 18.53125 -21.109375 C 17.257812 -21.109375 16.125 -20.796875 15.125 -20.171875 C 14.132812 -19.554688 13.351562 -18.695312 12.78125 -17.59375 C 12.21875 -16.5 11.9375 -15.242188 11.9375 -13.828125 C 11.9375 -12.398438 12.21875 -11.132812 12.78125 -10.03125 C 13.351562 -8.9375 14.132812 -8.078125 15.125 -7.453125 C 16.125 -6.835938 17.257812 -6.53125 18.53125 -6.53125 Z M 18.53125 -6.53125 "/></g></g></g><g fill="#000000" fill-opacity="1"><g transform="translate(276.789922, 208.122425)"><g><path d="M 16.71875 1 C 14.050781 1 11.65625 0.648438 9.53125 -0.046875 C 7.40625 -0.742188 5.65625 -1.828125 4.28125 -3.296875 C 2.914062 -4.765625 2.035156 -6.660156 1.640625 -8.984375 C 1.578125 -9.398438 1.660156 -9.722656 1.890625 -9.953125 C 2.117188 -10.179688 2.429688 -10.296875 2.828125 -10.296875 L 9.671875 -10.296875 C 10.046875 -10.296875 10.335938 -10.191406 10.546875 -9.984375 C 10.765625 -9.773438 10.914062 -9.484375 11 -9.109375 C 11.1875 -8.378906 11.515625 -7.773438 11.984375 -7.296875 C 12.453125 -6.828125 12.984375 -6.460938 13.578125 -6.203125 C 14.179688 -5.941406 14.78125 -5.765625 15.375 -5.671875 C 15.96875 -5.578125 16.476562 -5.53125 16.90625 -5.53125 C 18.382812 -5.53125 19.472656 -5.785156 20.171875 -6.296875 C 20.878906 -6.804688 21.234375 -7.453125 21.234375 -8.234375 C 21.234375 -8.878906 20.972656 -9.390625 20.453125 -9.765625 C 19.929688 -10.140625 19.226562 -10.429688 18.34375 -10.640625 C 17.46875 -10.859375 16.476562 -11.046875 15.375 -11.203125 C 14.28125 -11.359375 13.144531 -11.539062 11.96875 -11.75 C 10.789062 -11.957031 9.648438 -12.234375 8.546875 -12.578125 C 7.453125 -12.921875 6.460938 -13.382812 5.578125 -13.96875 C 4.703125 -14.5625 4.003906 -15.328125 3.484375 -16.265625 C 2.960938 -17.210938 2.703125 -18.390625 2.703125 -19.796875 C 2.703125 -21.578125 3.203125 -23.132812 4.203125 -24.46875 C 5.210938 -25.8125 6.691406 -26.851562 8.640625 -27.59375 C 10.585938 -28.34375 12.984375 -28.71875 15.828125 -28.71875 C 19.515625 -28.71875 22.523438 -28.050781 24.859375 -26.71875 C 27.191406 -25.382812 28.707031 -23.367188 29.40625 -20.671875 C 29.507812 -20.234375 29.457031 -19.890625 29.25 -19.640625 C 29.039062 -19.398438 28.710938 -19.28125 28.265625 -19.28125 L 21.546875 -19.28125 C 20.898438 -19.28125 20.421875 -19.640625 20.109375 -20.359375 C 19.734375 -21.171875 19.179688 -21.789062 18.453125 -22.21875 C 17.734375 -22.65625 16.691406 -22.875 15.328125 -22.875 C 14.242188 -22.875 13.445312 -22.6875 12.9375 -22.3125 C 12.4375 -21.945312 12.1875 -21.523438 12.1875 -21.046875 C 12.1875 -20.441406 12.445312 -19.957031 12.96875 -19.59375 C 13.5 -19.238281 14.203125 -18.953125 15.078125 -18.734375 C 15.953125 -18.515625 16.941406 -18.320312 18.046875 -18.15625 C 19.148438 -17.988281 20.285156 -17.789062 21.453125 -17.5625 C 22.628906 -17.332031 23.765625 -17.023438 24.859375 -16.640625 C 25.960938 -16.265625 26.953125 -15.757812 27.828125 -15.125 C 28.710938 -14.488281 29.414062 -13.679688 29.9375 -12.703125 C 30.457031 -11.734375 30.71875 -10.535156 30.71875 -9.109375 C 30.71875 -6.972656 30.160156 -5.148438 29.046875 -3.640625 C 27.941406 -2.128906 26.347656 -0.976562 24.265625 -0.1875 C 22.179688 0.601562 19.664062 1 16.71875 1 Z M 16.71875 1 "/></g></g></g></svg>